<mxfile host="app.diagrams.net" agent="Mozilla/5.0 (Windows NT 10.0; Win64; x64) AppleWebKit/537.36 (KHTML, like Gecko) Chrome/135.0.0.0 Safari/537.36" version="26.2.14">
  <diagram id="C5RBs43oDa-KdzZeNtuy" name="Page-1">
    <mxGraphModel dx="1426" dy="1946" grid="1" gridSize="10" guides="1" tooltips="1" connect="1" arrows="1" fold="1" page="1" pageScale="1" pageWidth="827" pageHeight="1169" math="0" shadow="0">
      <root>
        <mxCell id="WIyWlLk6GJQsqaUBKTNV-0" />
        <mxCell id="WIyWlLk6GJQsqaUBKTNV-1" parent="WIyWlLk6GJQsqaUBKTNV-0" />
        <mxCell id="zkfFHV4jXpPFQw0GAbJ--0" value="cliente" style="swimlane;fontStyle=2;align=center;verticalAlign=top;childLayout=stackLayout;horizontal=1;startSize=26;horizontalStack=0;resizeParent=1;resizeLast=0;collapsible=1;marginBottom=0;rounded=0;shadow=0;strokeWidth=1;" parent="WIyWlLk6GJQsqaUBKTNV-1" vertex="1">
          <mxGeometry x="220" y="30" width="160" height="190" as="geometry">
            <mxRectangle x="230" y="140" width="160" height="26" as="alternateBounds" />
          </mxGeometry>
        </mxCell>
        <mxCell id="zkfFHV4jXpPFQw0GAbJ--1" value="cliente_id" style="text;align=left;verticalAlign=top;spacingLeft=4;spacingRight=4;overflow=hidden;rotatable=0;points=[[0,0.5],[1,0.5]];portConstraint=eastwest;" parent="zkfFHV4jXpPFQw0GAbJ--0" vertex="1">
          <mxGeometry y="26" width="160" height="26" as="geometry" />
        </mxCell>
        <mxCell id="zkfFHV4jXpPFQw0GAbJ--2" value="permiso_id" style="text;align=left;verticalAlign=top;spacingLeft=4;spacingRight=4;overflow=hidden;rotatable=0;points=[[0,0.5],[1,0.5]];portConstraint=eastwest;rounded=0;shadow=0;html=0;" parent="zkfFHV4jXpPFQw0GAbJ--0" vertex="1">
          <mxGeometry y="52" width="160" height="26" as="geometry" />
        </mxCell>
        <mxCell id="WmX6rdo8QZPsOeK7fYuw-89" value="correo" style="text;align=left;verticalAlign=top;spacingLeft=4;spacingRight=4;overflow=hidden;rotatable=0;points=[[0,0.5],[1,0.5]];portConstraint=eastwest;rounded=0;shadow=0;html=0;" vertex="1" parent="zkfFHV4jXpPFQw0GAbJ--0">
          <mxGeometry y="78" width="160" height="26" as="geometry" />
        </mxCell>
        <mxCell id="WmX6rdo8QZPsOeK7fYuw-97" value="correo_id" style="text;align=left;verticalAlign=top;spacingLeft=4;spacingRight=4;overflow=hidden;rotatable=0;points=[[0,0.5],[1,0.5]];portConstraint=eastwest;rounded=0;shadow=0;html=0;" vertex="1" parent="zkfFHV4jXpPFQw0GAbJ--0">
          <mxGeometry y="104" width="160" height="26" as="geometry" />
        </mxCell>
        <mxCell id="WmX6rdo8QZPsOeK7fYuw-90" value="contrasseña" style="text;align=left;verticalAlign=top;spacingLeft=4;spacingRight=4;overflow=hidden;rotatable=0;points=[[0,0.5],[1,0.5]];portConstraint=eastwest;rounded=0;shadow=0;html=0;" vertex="1" parent="zkfFHV4jXpPFQw0GAbJ--0">
          <mxGeometry y="130" width="160" height="26" as="geometry" />
        </mxCell>
        <mxCell id="zkfFHV4jXpPFQw0GAbJ--4" value="" style="line;html=1;strokeWidth=1;align=left;verticalAlign=middle;spacingTop=-1;spacingLeft=3;spacingRight=3;rotatable=0;labelPosition=right;points=[];portConstraint=eastwest;" parent="zkfFHV4jXpPFQw0GAbJ--0" vertex="1">
          <mxGeometry y="156" width="160" height="8" as="geometry" />
        </mxCell>
        <mxCell id="zkfFHV4jXpPFQw0GAbJ--5" value="dato_id" style="text;align=left;verticalAlign=top;spacingLeft=4;spacingRight=4;overflow=hidden;rotatable=0;points=[[0,0.5],[1,0.5]];portConstraint=eastwest;" parent="zkfFHV4jXpPFQw0GAbJ--0" vertex="1">
          <mxGeometry y="164" width="160" height="26" as="geometry" />
        </mxCell>
        <mxCell id="zkfFHV4jXpPFQw0GAbJ--17" value="cliente" style="swimlane;fontStyle=0;align=center;verticalAlign=top;childLayout=stackLayout;horizontal=1;startSize=26;horizontalStack=0;resizeParent=1;resizeLast=0;collapsible=1;marginBottom=0;rounded=0;shadow=0;strokeWidth=1;" parent="WIyWlLk6GJQsqaUBKTNV-1" vertex="1">
          <mxGeometry x="30" y="270" width="162" height="220" as="geometry">
            <mxRectangle x="550" y="140" width="160" height="26" as="alternateBounds" />
          </mxGeometry>
        </mxCell>
        <mxCell id="zkfFHV4jXpPFQw0GAbJ--18" value="cliente_id" style="text;align=left;verticalAlign=top;spacingLeft=4;spacingRight=4;overflow=hidden;rotatable=0;points=[[0,0.5],[1,0.5]];portConstraint=eastwest;" parent="zkfFHV4jXpPFQw0GAbJ--17" vertex="1">
          <mxGeometry y="26" width="162" height="26" as="geometry" />
        </mxCell>
        <mxCell id="zkfFHV4jXpPFQw0GAbJ--19" value="nombre" style="text;align=left;verticalAlign=top;spacingLeft=4;spacingRight=4;overflow=hidden;rotatable=0;points=[[0,0.5],[1,0.5]];portConstraint=eastwest;rounded=0;shadow=0;html=0;" parent="zkfFHV4jXpPFQw0GAbJ--17" vertex="1">
          <mxGeometry y="52" width="162" height="26" as="geometry" />
        </mxCell>
        <mxCell id="zkfFHV4jXpPFQw0GAbJ--20" value="edad" style="text;align=left;verticalAlign=top;spacingLeft=4;spacingRight=4;overflow=hidden;rotatable=0;points=[[0,0.5],[1,0.5]];portConstraint=eastwest;rounded=0;shadow=0;html=0;" parent="zkfFHV4jXpPFQw0GAbJ--17" vertex="1">
          <mxGeometry y="78" width="162" height="26" as="geometry" />
        </mxCell>
        <mxCell id="zkfFHV4jXpPFQw0GAbJ--21" value="nombre_Compañia" style="text;align=left;verticalAlign=top;spacingLeft=4;spacingRight=4;overflow=hidden;rotatable=0;points=[[0,0.5],[1,0.5]];portConstraint=eastwest;rounded=0;shadow=0;html=0;" parent="zkfFHV4jXpPFQw0GAbJ--17" vertex="1">
          <mxGeometry y="104" width="162" height="26" as="geometry" />
        </mxCell>
        <mxCell id="zkfFHV4jXpPFQw0GAbJ--22" value="direccion" style="text;align=left;verticalAlign=top;spacingLeft=4;spacingRight=4;overflow=hidden;rotatable=0;points=[[0,0.5],[1,0.5]];portConstraint=eastwest;rounded=0;shadow=0;html=0;" parent="zkfFHV4jXpPFQw0GAbJ--17" vertex="1">
          <mxGeometry y="130" width="162" height="26" as="geometry" />
        </mxCell>
        <mxCell id="zkfFHV4jXpPFQw0GAbJ--24" value="fehca_Ingreso" style="text;align=left;verticalAlign=top;spacingLeft=4;spacingRight=4;overflow=hidden;rotatable=0;points=[[0,0.5],[1,0.5]];portConstraint=eastwest;" parent="zkfFHV4jXpPFQw0GAbJ--17" vertex="1">
          <mxGeometry y="156" width="162" height="26" as="geometry" />
        </mxCell>
        <mxCell id="zkfFHV4jXpPFQw0GAbJ--23" value="" style="line;html=1;strokeWidth=1;align=left;verticalAlign=middle;spacingTop=-1;spacingLeft=3;spacingRight=3;rotatable=0;labelPosition=right;points=[];portConstraint=eastwest;" parent="zkfFHV4jXpPFQw0GAbJ--17" vertex="1">
          <mxGeometry y="182" width="162" height="8" as="geometry" />
        </mxCell>
        <mxCell id="zkfFHV4jXpPFQw0GAbJ--25" value="plan" style="text;align=left;verticalAlign=top;spacingLeft=4;spacingRight=4;overflow=hidden;rotatable=0;points=[[0,0.5],[1,0.5]];portConstraint=eastwest;" parent="zkfFHV4jXpPFQw0GAbJ--17" vertex="1">
          <mxGeometry y="190" width="162" height="26" as="geometry" />
        </mxCell>
        <mxCell id="zkfFHV4jXpPFQw0GAbJ--26" value="" style="endArrow=open;shadow=0;strokeWidth=1;rounded=0;curved=0;endFill=1;edgeStyle=elbowEdgeStyle;elbow=vertical;" parent="WIyWlLk6GJQsqaUBKTNV-1" source="zkfFHV4jXpPFQw0GAbJ--0" target="zkfFHV4jXpPFQw0GAbJ--17" edge="1">
          <mxGeometry x="0.5" y="41" relative="1" as="geometry">
            <mxPoint x="380" y="192" as="sourcePoint" />
            <mxPoint x="540" y="192" as="targetPoint" />
            <mxPoint x="-40" y="32" as="offset" />
          </mxGeometry>
        </mxCell>
        <mxCell id="zkfFHV4jXpPFQw0GAbJ--27" value="" style="resizable=0;align=left;verticalAlign=bottom;labelBackgroundColor=none;fontSize=12;" parent="zkfFHV4jXpPFQw0GAbJ--26" connectable="0" vertex="1">
          <mxGeometry x="-1" relative="1" as="geometry">
            <mxPoint y="4" as="offset" />
          </mxGeometry>
        </mxCell>
        <mxCell id="zkfFHV4jXpPFQw0GAbJ--28" value="1" style="resizable=0;align=right;verticalAlign=bottom;labelBackgroundColor=none;fontSize=12;" parent="zkfFHV4jXpPFQw0GAbJ--26" connectable="0" vertex="1">
          <mxGeometry x="1" relative="1" as="geometry">
            <mxPoint x="-7" y="4" as="offset" />
          </mxGeometry>
        </mxCell>
        <mxCell id="WmX6rdo8QZPsOeK7fYuw-0" value="permisos" style="swimlane;fontStyle=0;align=center;verticalAlign=top;childLayout=stackLayout;horizontal=1;startSize=26;horizontalStack=0;resizeParent=1;resizeLast=0;collapsible=1;marginBottom=0;rounded=0;shadow=0;strokeWidth=1;" vertex="1" parent="WIyWlLk6GJQsqaUBKTNV-1">
          <mxGeometry x="30" y="10" width="130" height="170" as="geometry">
            <mxRectangle x="340" y="380" width="170" height="26" as="alternateBounds" />
          </mxGeometry>
        </mxCell>
        <mxCell id="WmX6rdo8QZPsOeK7fYuw-2" value="" style="line;html=1;strokeWidth=1;align=left;verticalAlign=middle;spacingTop=-1;spacingLeft=3;spacingRight=3;rotatable=0;labelPosition=right;points=[];portConstraint=eastwest;" vertex="1" parent="WmX6rdo8QZPsOeK7fYuw-0">
          <mxGeometry y="26" width="130" height="8" as="geometry" />
        </mxCell>
        <mxCell id="WmX6rdo8QZPsOeK7fYuw-1" value="permiso_id" style="text;align=left;verticalAlign=top;spacingLeft=4;spacingRight=4;overflow=hidden;rotatable=0;points=[[0,0.5],[1,0.5]];portConstraint=eastwest;" vertex="1" parent="WmX6rdo8QZPsOeK7fYuw-0">
          <mxGeometry y="34" width="130" height="26" as="geometry" />
        </mxCell>
        <mxCell id="WmX6rdo8QZPsOeK7fYuw-4" value="-correo_id" style="text;align=left;verticalAlign=top;spacingLeft=4;spacingRight=4;overflow=hidden;rotatable=0;points=[[0,0.5],[1,0.5]];portConstraint=eastwest;" vertex="1" parent="WmX6rdo8QZPsOeK7fYuw-0">
          <mxGeometry y="60" width="130" height="20" as="geometry" />
        </mxCell>
        <mxCell id="WmX6rdo8QZPsOeK7fYuw-5" value="-roll" style="text;align=left;verticalAlign=top;spacingLeft=4;spacingRight=4;overflow=hidden;rotatable=0;points=[[0,0.5],[1,0.5]];portConstraint=eastwest;" vertex="1" parent="WmX6rdo8QZPsOeK7fYuw-0">
          <mxGeometry y="80" width="130" height="20" as="geometry" />
        </mxCell>
        <mxCell id="WmX6rdo8QZPsOeK7fYuw-6" value="-contraseña&#xa;" style="text;align=left;verticalAlign=top;spacingLeft=4;spacingRight=4;overflow=hidden;rotatable=0;points=[[0,0.5],[1,0.5]];portConstraint=eastwest;" vertex="1" parent="WmX6rdo8QZPsOeK7fYuw-0">
          <mxGeometry y="100" width="130" height="20" as="geometry" />
        </mxCell>
        <mxCell id="WmX6rdo8QZPsOeK7fYuw-96" value="tipo_permiso" style="text;align=left;verticalAlign=top;spacingLeft=4;spacingRight=4;overflow=hidden;rotatable=0;points=[[0,0.5],[1,0.5]];portConstraint=eastwest;" vertex="1" parent="WmX6rdo8QZPsOeK7fYuw-0">
          <mxGeometry y="120" width="130" height="20" as="geometry" />
        </mxCell>
        <mxCell id="WmX6rdo8QZPsOeK7fYuw-7" style="edgeStyle=orthogonalEdgeStyle;rounded=0;orthogonalLoop=1;jettySize=auto;html=1;" edge="1" parent="WIyWlLk6GJQsqaUBKTNV-1" target="WmX6rdo8QZPsOeK7fYuw-4">
          <mxGeometry relative="1" as="geometry">
            <mxPoint x="220" y="173" as="sourcePoint" />
          </mxGeometry>
        </mxCell>
        <mxCell id="WmX6rdo8QZPsOeK7fYuw-8" value="datos" style="swimlane;fontStyle=0;align=center;verticalAlign=top;childLayout=stackLayout;horizontal=1;startSize=26;horizontalStack=0;resizeParent=1;resizeLast=0;collapsible=1;marginBottom=0;rounded=0;shadow=0;strokeWidth=1;" vertex="1" parent="WIyWlLk6GJQsqaUBKTNV-1">
          <mxGeometry x="450" y="130" width="160" height="296" as="geometry">
            <mxRectangle x="550" y="140" width="160" height="26" as="alternateBounds" />
          </mxGeometry>
        </mxCell>
        <mxCell id="WmX6rdo8QZPsOeK7fYuw-9" value="datos_id" style="text;align=left;verticalAlign=top;spacingLeft=4;spacingRight=4;overflow=hidden;rotatable=0;points=[[0,0.5],[1,0.5]];portConstraint=eastwest;" vertex="1" parent="WmX6rdo8QZPsOeK7fYuw-8">
          <mxGeometry y="26" width="160" height="26" as="geometry" />
        </mxCell>
        <mxCell id="WmX6rdo8QZPsOeK7fYuw-10" value="informacion_legal" style="text;align=left;verticalAlign=top;spacingLeft=4;spacingRight=4;overflow=hidden;rotatable=0;points=[[0,0.5],[1,0.5]];portConstraint=eastwest;rounded=0;shadow=0;html=0;" vertex="1" parent="WmX6rdo8QZPsOeK7fYuw-8">
          <mxGeometry y="52" width="160" height="26" as="geometry" />
        </mxCell>
        <mxCell id="WmX6rdo8QZPsOeK7fYuw-94" value="informacion_Contabilidad&#xa;" style="text;align=left;verticalAlign=top;spacingLeft=4;spacingRight=4;overflow=hidden;rotatable=0;points=[[0,0.5],[1,0.5]];portConstraint=eastwest;" vertex="1" parent="WmX6rdo8QZPsOeK7fYuw-8">
          <mxGeometry y="78" width="160" height="26" as="geometry" />
        </mxCell>
        <mxCell id="WmX6rdo8QZPsOeK7fYuw-11" value="informacion_Procesos" style="text;align=left;verticalAlign=top;spacingLeft=4;spacingRight=4;overflow=hidden;rotatable=0;points=[[0,0.5],[1,0.5]];portConstraint=eastwest;rounded=0;shadow=0;html=0;" vertex="1" parent="WmX6rdo8QZPsOeK7fYuw-8">
          <mxGeometry y="104" width="160" height="26" as="geometry" />
        </mxCell>
        <mxCell id="WmX6rdo8QZPsOeK7fYuw-12" value="informacion_Recetas" style="text;align=left;verticalAlign=top;spacingLeft=4;spacingRight=4;overflow=hidden;rotatable=0;points=[[0,0.5],[1,0.5]];portConstraint=eastwest;rounded=0;shadow=0;html=0;" vertex="1" parent="WmX6rdo8QZPsOeK7fYuw-8">
          <mxGeometry y="130" width="160" height="26" as="geometry" />
        </mxCell>
        <mxCell id="WmX6rdo8QZPsOeK7fYuw-13" value="informacion_Pagos&#xa;" style="text;align=left;verticalAlign=top;spacingLeft=4;spacingRight=4;overflow=hidden;rotatable=0;points=[[0,0.5],[1,0.5]];portConstraint=eastwest;rounded=0;shadow=0;html=0;" vertex="1" parent="WmX6rdo8QZPsOeK7fYuw-8">
          <mxGeometry y="156" width="160" height="26" as="geometry" />
        </mxCell>
        <mxCell id="WmX6rdo8QZPsOeK7fYuw-16" value="informacion_deudas" style="text;align=left;verticalAlign=top;spacingLeft=4;spacingRight=4;overflow=hidden;rotatable=0;points=[[0,0.5],[1,0.5]];portConstraint=eastwest;" vertex="1" parent="WmX6rdo8QZPsOeK7fYuw-8">
          <mxGeometry y="182" width="160" height="26" as="geometry" />
        </mxCell>
        <mxCell id="WmX6rdo8QZPsOeK7fYuw-15" value="tipo_de_permiso" style="text;align=left;verticalAlign=top;spacingLeft=4;spacingRight=4;overflow=hidden;rotatable=0;points=[[0,0.5],[1,0.5]];portConstraint=eastwest;" vertex="1" parent="WmX6rdo8QZPsOeK7fYuw-8">
          <mxGeometry y="208" width="160" height="28" as="geometry" />
        </mxCell>
        <mxCell id="WmX6rdo8QZPsOeK7fYuw-19" value="correo" style="text;align=left;verticalAlign=top;spacingLeft=4;spacingRight=4;overflow=hidden;rotatable=0;points=[[0,0.5],[1,0.5]];portConstraint=eastwest;" vertex="1" parent="WmX6rdo8QZPsOeK7fYuw-8">
          <mxGeometry y="236" width="160" height="26" as="geometry" />
        </mxCell>
        <mxCell id="WmX6rdo8QZPsOeK7fYuw-14" value="" style="line;html=1;strokeWidth=1;align=left;verticalAlign=middle;spacingTop=-1;spacingLeft=3;spacingRight=3;rotatable=0;labelPosition=right;points=[];portConstraint=eastwest;" vertex="1" parent="WmX6rdo8QZPsOeK7fYuw-8">
          <mxGeometry y="262" width="160" height="8" as="geometry" />
        </mxCell>
        <mxCell id="WmX6rdo8QZPsOeK7fYuw-17" value="numero_de_respaldo " style="text;align=left;verticalAlign=top;spacingLeft=4;spacingRight=4;overflow=hidden;rotatable=0;points=[[0,0.5],[1,0.5]];portConstraint=eastwest;" vertex="1" parent="WmX6rdo8QZPsOeK7fYuw-8">
          <mxGeometry y="270" width="160" height="26" as="geometry" />
        </mxCell>
        <mxCell id="WmX6rdo8QZPsOeK7fYuw-21" value="La base de datos del cliente será consultada para obtener únicamente sus datos. Esta información será la respuesta del servidor.&lt;br data-end=&quot;193&quot; data-start=&quot;190&quot;&gt;&lt;br/&gt;Según los permisos del usuario, se podrá generar una copia como punto de restauración. Si no se requiere, dicha copia será eliminada después de un tiempo determinado para liberar espacio. El tiempo de retención dependerá del nivel de permiso asignado." style="whiteSpace=wrap;html=1;rounded=1;arcSize=50;align=center;verticalAlign=middle;strokeWidth=1;autosize=1;spacing=4;treeFolding=1;treeMoving=1;newEdgeStyle={&quot;edgeStyle&quot;:&quot;entityRelationEdgeStyle&quot;,&quot;startArrow&quot;:&quot;none&quot;,&quot;endArrow&quot;:&quot;none&quot;,&quot;segment&quot;:10,&quot;curved&quot;:1,&quot;sourcePerimeterSpacing&quot;:0,&quot;targetPerimeterSpacing&quot;:0};" vertex="1" parent="WIyWlLk6GJQsqaUBKTNV-1">
          <mxGeometry x="900" y="250" width="510" height="190" as="geometry" />
        </mxCell>
        <mxCell id="WmX6rdo8QZPsOeK7fYuw-22" value="" style="edgeStyle=entityRelationEdgeStyle;startArrow=none;endArrow=none;segment=10;curved=1;sourcePerimeterSpacing=0;targetPerimeterSpacing=0;rounded=0;" edge="1" target="WmX6rdo8QZPsOeK7fYuw-21" parent="WIyWlLk6GJQsqaUBKTNV-1" source="WmX6rdo8QZPsOeK7fYuw-55">
          <mxGeometry relative="1" as="geometry">
            <mxPoint x="720" y="720" as="sourcePoint" />
          </mxGeometry>
        </mxCell>
        <mxCell id="WmX6rdo8QZPsOeK7fYuw-45" value="datos" style="swimlane;fontStyle=0;align=center;verticalAlign=top;childLayout=stackLayout;horizontal=1;startSize=26;horizontalStack=0;resizeParent=1;resizeLast=0;collapsible=1;marginBottom=0;rounded=0;shadow=0;strokeWidth=1;" vertex="1" parent="WIyWlLk6GJQsqaUBKTNV-1">
          <mxGeometry x="650" y="99" width="160" height="296" as="geometry">
            <mxRectangle x="550" y="140" width="160" height="26" as="alternateBounds" />
          </mxGeometry>
        </mxCell>
        <mxCell id="WmX6rdo8QZPsOeK7fYuw-95" value="datos_id" style="text;align=left;verticalAlign=top;spacingLeft=4;spacingRight=4;overflow=hidden;rotatable=0;points=[[0,0.5],[1,0.5]];portConstraint=eastwest;rounded=0;shadow=0;html=0;" vertex="1" parent="WmX6rdo8QZPsOeK7fYuw-45">
          <mxGeometry y="26" width="160" height="26" as="geometry" />
        </mxCell>
        <mxCell id="WmX6rdo8QZPsOeK7fYuw-47" value="informacion_legal" style="text;align=left;verticalAlign=top;spacingLeft=4;spacingRight=4;overflow=hidden;rotatable=0;points=[[0,0.5],[1,0.5]];portConstraint=eastwest;rounded=0;shadow=0;html=0;" vertex="1" parent="WmX6rdo8QZPsOeK7fYuw-45">
          <mxGeometry y="52" width="160" height="26" as="geometry" />
        </mxCell>
        <mxCell id="WmX6rdo8QZPsOeK7fYuw-46" value="informacion_Contabilidad&#xa;" style="text;align=left;verticalAlign=top;spacingLeft=4;spacingRight=4;overflow=hidden;rotatable=0;points=[[0,0.5],[1,0.5]];portConstraint=eastwest;" vertex="1" parent="WmX6rdo8QZPsOeK7fYuw-45">
          <mxGeometry y="78" width="160" height="26" as="geometry" />
        </mxCell>
        <mxCell id="WmX6rdo8QZPsOeK7fYuw-48" value="informacion_Procesos" style="text;align=left;verticalAlign=top;spacingLeft=4;spacingRight=4;overflow=hidden;rotatable=0;points=[[0,0.5],[1,0.5]];portConstraint=eastwest;rounded=0;shadow=0;html=0;" vertex="1" parent="WmX6rdo8QZPsOeK7fYuw-45">
          <mxGeometry y="104" width="160" height="26" as="geometry" />
        </mxCell>
        <mxCell id="WmX6rdo8QZPsOeK7fYuw-49" value="informacion_Recetas" style="text;align=left;verticalAlign=top;spacingLeft=4;spacingRight=4;overflow=hidden;rotatable=0;points=[[0,0.5],[1,0.5]];portConstraint=eastwest;rounded=0;shadow=0;html=0;" vertex="1" parent="WmX6rdo8QZPsOeK7fYuw-45">
          <mxGeometry y="130" width="160" height="26" as="geometry" />
        </mxCell>
        <mxCell id="WmX6rdo8QZPsOeK7fYuw-50" value="informacion_Pagos&#xa;" style="text;align=left;verticalAlign=top;spacingLeft=4;spacingRight=4;overflow=hidden;rotatable=0;points=[[0,0.5],[1,0.5]];portConstraint=eastwest;rounded=0;shadow=0;html=0;" vertex="1" parent="WmX6rdo8QZPsOeK7fYuw-45">
          <mxGeometry y="156" width="160" height="26" as="geometry" />
        </mxCell>
        <mxCell id="WmX6rdo8QZPsOeK7fYuw-51" value="informacion_deudas" style="text;align=left;verticalAlign=top;spacingLeft=4;spacingRight=4;overflow=hidden;rotatable=0;points=[[0,0.5],[1,0.5]];portConstraint=eastwest;" vertex="1" parent="WmX6rdo8QZPsOeK7fYuw-45">
          <mxGeometry y="182" width="160" height="26" as="geometry" />
        </mxCell>
        <mxCell id="WmX6rdo8QZPsOeK7fYuw-52" value="tipo_de_permiso" style="text;align=left;verticalAlign=top;spacingLeft=4;spacingRight=4;overflow=hidden;rotatable=0;points=[[0,0.5],[1,0.5]];portConstraint=eastwest;" vertex="1" parent="WmX6rdo8QZPsOeK7fYuw-45">
          <mxGeometry y="208" width="160" height="28" as="geometry" />
        </mxCell>
        <mxCell id="WmX6rdo8QZPsOeK7fYuw-53" value="correo" style="text;align=left;verticalAlign=top;spacingLeft=4;spacingRight=4;overflow=hidden;rotatable=0;points=[[0,0.5],[1,0.5]];portConstraint=eastwest;" vertex="1" parent="WmX6rdo8QZPsOeK7fYuw-45">
          <mxGeometry y="236" width="160" height="26" as="geometry" />
        </mxCell>
        <mxCell id="WmX6rdo8QZPsOeK7fYuw-54" value="" style="line;html=1;strokeWidth=1;align=left;verticalAlign=middle;spacingTop=-1;spacingLeft=3;spacingRight=3;rotatable=0;labelPosition=right;points=[];portConstraint=eastwest;" vertex="1" parent="WmX6rdo8QZPsOeK7fYuw-45">
          <mxGeometry y="262" width="160" height="8" as="geometry" />
        </mxCell>
        <mxCell id="WmX6rdo8QZPsOeK7fYuw-55" value="numero_de_respaldo " style="text;align=left;verticalAlign=top;spacingLeft=4;spacingRight=4;overflow=hidden;rotatable=0;points=[[0,0.5],[1,0.5]];portConstraint=eastwest;" vertex="1" parent="WmX6rdo8QZPsOeK7fYuw-45">
          <mxGeometry y="270" width="160" height="26" as="geometry" />
        </mxCell>
        <mxCell id="WmX6rdo8QZPsOeK7fYuw-56" value="analista " style="swimlane;fontStyle=2;align=center;verticalAlign=top;childLayout=stackLayout;horizontal=1;startSize=26;horizontalStack=0;resizeParent=1;resizeLast=0;collapsible=1;marginBottom=0;rounded=0;shadow=0;strokeWidth=1;" vertex="1" parent="WIyWlLk6GJQsqaUBKTNV-1">
          <mxGeometry x="370" y="-150" width="160" height="138" as="geometry">
            <mxRectangle x="230" y="140" width="160" height="26" as="alternateBounds" />
          </mxGeometry>
        </mxCell>
        <mxCell id="WmX6rdo8QZPsOeK7fYuw-57" value="analista_id" style="text;align=left;verticalAlign=top;spacingLeft=4;spacingRight=4;overflow=hidden;rotatable=0;points=[[0,0.5],[1,0.5]];portConstraint=eastwest;" vertex="1" parent="WmX6rdo8QZPsOeK7fYuw-56">
          <mxGeometry y="26" width="160" height="26" as="geometry" />
        </mxCell>
        <mxCell id="WmX6rdo8QZPsOeK7fYuw-58" value="tiempo_en_lacompañia" style="text;align=left;verticalAlign=top;spacingLeft=4;spacingRight=4;overflow=hidden;rotatable=0;points=[[0,0.5],[1,0.5]];portConstraint=eastwest;rounded=0;shadow=0;html=0;" vertex="1" parent="WmX6rdo8QZPsOeK7fYuw-56">
          <mxGeometry y="52" width="160" height="26" as="geometry" />
        </mxCell>
        <mxCell id="WmX6rdo8QZPsOeK7fYuw-59" value="fecha_inici_cliente&#xa;" style="text;align=left;verticalAlign=top;spacingLeft=4;spacingRight=4;overflow=hidden;rotatable=0;points=[[0,0.5],[1,0.5]];portConstraint=eastwest;rounded=0;shadow=0;html=0;" vertex="1" parent="WmX6rdo8QZPsOeK7fYuw-56">
          <mxGeometry y="78" width="160" height="26" as="geometry" />
        </mxCell>
        <mxCell id="WmX6rdo8QZPsOeK7fYuw-60" value="" style="line;html=1;strokeWidth=1;align=left;verticalAlign=middle;spacingTop=-1;spacingLeft=3;spacingRight=3;rotatable=0;labelPosition=right;points=[];portConstraint=eastwest;" vertex="1" parent="WmX6rdo8QZPsOeK7fYuw-56">
          <mxGeometry y="104" width="160" height="8" as="geometry" />
        </mxCell>
        <mxCell id="WmX6rdo8QZPsOeK7fYuw-62" style="edgeStyle=orthogonalEdgeStyle;rounded=0;orthogonalLoop=1;jettySize=auto;html=1;entryX=0.471;entryY=-0.021;entryDx=0;entryDy=0;entryPerimeter=0;" edge="1" parent="WIyWlLk6GJQsqaUBKTNV-1" source="WmX6rdo8QZPsOeK7fYuw-57" target="zkfFHV4jXpPFQw0GAbJ--0">
          <mxGeometry relative="1" as="geometry" />
        </mxCell>
        <mxCell id="WmX6rdo8QZPsOeK7fYuw-63" style="edgeStyle=orthogonalEdgeStyle;rounded=0;orthogonalLoop=1;jettySize=auto;html=1;entryX=0.875;entryY=-0.011;entryDx=0;entryDy=0;entryPerimeter=0;" edge="1" parent="WIyWlLk6GJQsqaUBKTNV-1" source="WmX6rdo8QZPsOeK7fYuw-57" target="WmX6rdo8QZPsOeK7fYuw-8">
          <mxGeometry relative="1" as="geometry">
            <mxPoint x="790" y="550" as="targetPoint" />
          </mxGeometry>
        </mxCell>
        <mxCell id="WmX6rdo8QZPsOeK7fYuw-64" style="edgeStyle=orthogonalEdgeStyle;rounded=0;orthogonalLoop=1;jettySize=auto;html=1;entryX=0;entryY=0.064;entryDx=0;entryDy=0;entryPerimeter=0;" edge="1" parent="WIyWlLk6GJQsqaUBKTNV-1" source="WmX6rdo8QZPsOeK7fYuw-11" target="WmX6rdo8QZPsOeK7fYuw-45">
          <mxGeometry relative="1" as="geometry">
            <Array as="points">
              <mxPoint x="620" y="247" />
              <mxPoint x="620" y="181" />
              <mxPoint x="630" y="181" />
            </Array>
          </mxGeometry>
        </mxCell>
        <mxCell id="WmX6rdo8QZPsOeK7fYuw-65" style="edgeStyle=orthogonalEdgeStyle;rounded=0;orthogonalLoop=1;jettySize=auto;html=1;entryX=0.625;entryY=-0.011;entryDx=0;entryDy=0;entryPerimeter=0;exitX=1.019;exitY=0.077;exitDx=0;exitDy=0;exitPerimeter=0;" edge="1" parent="WIyWlLk6GJQsqaUBKTNV-1" source="zkfFHV4jXpPFQw0GAbJ--2" target="WmX6rdo8QZPsOeK7fYuw-8">
          <mxGeometry relative="1" as="geometry">
            <mxPoint x="680" y="40" as="targetPoint" />
            <mxPoint x="440" y="70" as="sourcePoint" />
            <Array as="points">
              <mxPoint x="440" y="84" />
              <mxPoint x="440" y="60" />
              <mxPoint x="550" y="60" />
            </Array>
          </mxGeometry>
        </mxCell>
        <mxCell id="WmX6rdo8QZPsOeK7fYuw-69" value="dependiendo del lan tendra una subcategoria de cliente al que tendra acceso a siertas tecnologias&amp;nbsp;" style="whiteSpace=wrap;html=1;rounded=1;arcSize=50;align=center;verticalAlign=middle;strokeWidth=1;autosize=1;spacing=4;treeFolding=1;treeMoving=1;newEdgeStyle={&quot;edgeStyle&quot;:&quot;entityRelationEdgeStyle&quot;,&quot;startArrow&quot;:&quot;none&quot;,&quot;endArrow&quot;:&quot;none&quot;,&quot;segment&quot;:10,&quot;curved&quot;:1,&quot;sourcePerimeterSpacing&quot;:0,&quot;targetPerimeterSpacing&quot;:0};" vertex="1" parent="WIyWlLk6GJQsqaUBKTNV-1">
          <mxGeometry x="192" y="520" width="230" height="100" as="geometry" />
        </mxCell>
        <mxCell id="WmX6rdo8QZPsOeK7fYuw-70" style="edgeStyle=entityRelationEdgeStyle;rounded=0;orthogonalLoop=1;jettySize=auto;html=1;startArrow=none;endArrow=none;segment=10;curved=1;sourcePerimeterSpacing=0;targetPerimeterSpacing=0;entryX=0.944;entryY=1.192;entryDx=0;entryDy=0;entryPerimeter=0;" edge="1" parent="WIyWlLk6GJQsqaUBKTNV-1" source="WmX6rdo8QZPsOeK7fYuw-69" target="zkfFHV4jXpPFQw0GAbJ--25">
          <mxGeometry relative="1" as="geometry" />
        </mxCell>
      </root>
    </mxGraphModel>
  </diagram>
</mxfile>
